<?xml version="1.0" encoding="utf-8"?>
<!-- Generator: Adobe Illustrator 16.0.0, SVG Export Plug-In . SVG Version: 6.00 Build 0)  -->
<!DOCTYPE svg PUBLIC "-//W3C//DTD SVG 1.1//EN" "http://www.w3.org/Graphics/SVG/1.1/DTD/svg11.dtd">
<svg version="1.1" id="Layer_1" xmlns="http://www.w3.org/2000/svg" xmlns:xlink="http://www.w3.org/1999/xlink" x="0px" y="0px"
	 width="367.434px" height="371.631px" viewBox="0 0 367.434 371.631" enable-background="new 0 0 367.434 371.631"
	 xml:space="preserve">
<g>
	<g>
		<g>
			<g>
				<g>
					<path fill-rule="evenodd" clip-rule="evenodd" fill="#779A0A" d="M367.379,353.245c-2.223,0-4.443,0-6.789,0
						c-0.145-1.389-0.273-2.626-0.402-3.865c-0.152,0-0.279-0.034-0.311,0.005c-3.645,4.804-8.623,5.471-14.012,4.229
						c-5.549-1.277-8.896-4.959-10.188-10.47c-0.801-3.419-0.752-6.849,0.234-10.238c1.563-5.38,6.041-9.105,11.604-9.839
						c3.207-0.423,6.313-0.299,9.141,1.377c1.242,0.736,2.287,1.802,3.533,2.809c0.078-1.156,0.156-2.307,0.252-3.684
						c2.338,0,4.637,0,6.938,0C367.379,333.461,367.379,343.354,367.379,353.245z M342.373,338.264
						c-0.021,5.474,3.582,9.217,8.889,9.235c5.078,0.019,8.793-3.822,8.793-9.091c0-5.216-3.658-9.06-8.66-9.093
						C346.084,329.28,342.393,332.94,342.373,338.264z"/>
				</g>
			</g>
			<g>
				<path fill-rule="evenodd" clip-rule="evenodd" fill="#779A0A" d="M82.426,371.631c-0.877-0.252-1.771-0.454-2.626-0.765
					c-0.853-0.313-1.665-0.732-2.616-1.161c0.891-1.925,1.727-3.725,2.54-5.48c1.122,0.227,2.129,0.546,3.151,0.607
					c1.895,0.114,2.971-0.798,3.24-2.675c0.156-1.076,0.223-2.178,0.225-3.267c0.016-11.156,0.01-22.311,0.01-33.467
					c0-0.556,0-1.111,0-1.729c2.425,0,4.675,0,7.006,0c0.025,0.489,0.064,0.916,0.065,1.341c0.003,11.462,0.054,22.924-0.045,34.386
					c-0.019,2.146-0.387,4.365-1.036,6.41c-0.985,3.105-3.287,4.969-6.56,5.527c-0.251,0.043-0.486,0.177-0.729,0.271
					C84.176,371.631,83.301,371.631,82.426,371.631z"/>
			</g>
			<g>
				<path fill-rule="evenodd" clip-rule="evenodd" fill="#779A0A" d="M90.567,310.962c1.522,0.591,2.956,1.241,3.422,3.062
					c0.601,2.354-0.499,4.603-2.659,5.255c-2.364,0.713-4.766-0.414-5.443-2.554c-0.786-2.486,0.33-4.669,2.793-5.479
					c0.201-0.066,0.384-0.188,0.574-0.283C89.691,310.962,90.129,310.962,90.567,310.962z"/>
			</g>
			<g>
				<g>
					<path fill-rule="evenodd" clip-rule="evenodd" fill="#779A0A" d="M257.928,338.303c4.393,4.984,8.619,9.779,13.115,14.881
						c-3.404,0-6.357,0.035-9.313-0.042c-0.406-0.01-0.865-0.513-1.189-0.883c-3.604-4.112-7.164-8.262-10.801-12.344
						c-0.42-0.472-1.221-0.798-1.869-0.845c-1.609-0.12-3.232-0.04-4.852-0.039c-1.732,0.001-1.734,0.001-1.734,1.676
						c-0.002,3.63-0.002,7.261-0.002,10.891c0,0.474,0,0.946,0,1.505c-2.621,0-5.129,0-7.713,0c0-13.921,0-27.804,0-41.764
						c0.441-0.021,0.822-0.054,1.207-0.054c6.254-0.004,12.51-0.062,18.764,0.031c1.77,0.025,3.596,0.275,5.289,0.786
						c11.668,3.516,11.787,17.309,6.01,22.738c-1.602,1.505-3.492,2.445-5.568,3.073
						C258.904,338.022,258.533,338.127,257.928,338.303z M241.287,332.022c4.332,0,8.473,0.037,12.613-0.01
						c3.963-0.044,6.734-2.68,6.877-6.433c0.141-3.804-2.484-6.8-6.459-6.977c-4.055-0.181-8.123-0.071-12.184-0.025
						c-0.285,0.003-0.809,0.522-0.811,0.808C241.271,323.527,241.287,327.671,241.287,332.022z"/>
				</g>
			</g>
			<g>
				<g>
					<path fill-rule="evenodd" clip-rule="evenodd" fill="#779A0A" d="M0,353.188c2.005-4.481,3.91-8.744,5.819-13.004
						c4.13-9.208,8.278-18.409,12.373-27.633c0.438-0.989,0.977-1.341,2.048-1.294c2.053,0.089,4.115-0.019,6.17,0.061
						c0.439,0.019,1.09,0.391,1.261,0.77c6.083,13.457,12.121,26.932,18.161,40.407c0.07,0.156,0.1,0.33,0.176,0.598
						c-2.814,0-5.578,0-8.395,0c-1.029-2.278-2.095-4.578-3.1-6.902c-0.285-0.662-0.649-0.899-1.375-0.896
						c-6.697,0.025-13.393,0.03-20.089-0.002c-0.782-0.006-1.171,0.264-1.472,0.959c-0.869,2.006-1.824,3.973-2.695,5.976
						c-0.297,0.681-0.648,1.003-1.452,0.982C5.027,353.149,2.62,353.188,0,353.188z M15.184,337.985c5.383,0,10.444,0,15.77,0
						c-2.623-6.014-5.182-11.879-7.891-18.087C20.345,326.138,17.807,331.963,15.184,337.985z"/>
				</g>
			</g>
			<g>
				<g>
					<path fill-rule="evenodd" clip-rule="evenodd" fill="#779A0A" d="M167.002,353.128c-2.17,0-4.297,0-6.548,0
						c-0.181-1.204-0.359-2.391-0.581-3.864c-1.726,2.29-3.74,3.722-6.314,4.3c-7.186,1.613-17.046-1.663-18.354-12.619
						c-0.403-3.371-0.098-6.631,1.148-9.781c3.768-9.521,17.527-10.748,23.027-4.259c0.082,0.098,0.202,0.16,0.51,0.396
						c0-5.402,0-10.645,0-15.951c2.457,0,4.717,0,7.111,0C167.002,325.25,167.002,339.159,167.002,353.128z M150.801,347.294
						c5.028-0.022,8.64-3.754,8.631-8.917c-0.009-5.063-3.759-8.837-8.762-8.82c-4.981,0.013-8.436,3.669-8.42,8.909
						C142.264,343.599,145.864,347.316,150.801,347.294z"/>
				</g>
			</g>
			<g>
				<g>
					<path fill-rule="evenodd" clip-rule="evenodd" fill="#779A0A" d="M56.077,327.424c6.206-7.21,18.849-5.335,22.701,2.399
						c2.78,5.584,2.851,11.318-0.011,16.893c-3.57,6.963-12.615,8.604-17.928,6.286c-1.733-0.757-3.174-2.187-4.785-3.333
						c-0.144,0.969-0.324,2.188-0.512,3.457c-2.202,0-4.334,0-6.57,0c0-13.882,0-27.767,0-41.746c2.303,0,4.634,0,7.104,0
						C56.077,316.625,56.077,321.849,56.077,327.424z M73.553,338.445c0.011-5.202-3.396-8.862-8.277-8.891
						c-4.998-0.029-8.684,3.721-8.691,8.843c-0.009,5.145,3.537,8.866,8.471,8.895C69.98,347.321,73.541,343.614,73.553,338.445z"/>
				</g>
			</g>
			<g>
				<g>
					<path fill-rule="evenodd" clip-rule="evenodd" fill="#779A0A" d="M123.28,327.664c0.097-1.543,0.169-2.687,0.247-3.937
						c2.271,0,4.512,0,6.828,0c0,9.762,0,19.503,0,29.353c-2.139,0-4.3,0-6.653,0c-0.137-1.2-0.28-2.464-0.466-4.086
						c-1.457,2.219-3.254,3.504-5.424,4.308c-8.989,3.323-18.35-2.515-19.365-12.024c-0.303-2.825-0.219-5.586,0.563-8.311
						c1.562-5.456,6.051-9.191,11.691-9.905c2.516-0.318,4.966-0.291,7.371,0.568C120.095,324.353,121.749,325.584,123.28,327.664z
						 M105.48,338.324c-0.008,5.452,3.629,9.179,8.95,9.175c5.016-0.004,8.698-3.81,8.731-9.019
						c0.033-5.276-3.655-9.154-8.718-9.165C109.143,329.304,105.489,332.978,105.48,338.324z"/>
				</g>
			</g>
			<g>
				<g>
					<path fill-rule="evenodd" clip-rule="evenodd" fill="#779A0A" d="M296.652,327.196c0.068-1.119,0.135-2.239,0.207-3.466
						c2.271,0,4.512,0,6.83,0c0,9.755,0,19.496,0,29.348c-2.172,0-4.371,0-6.68,0c-0.127-1.247-0.254-2.484-0.422-4.11
						c-1.471,2.245-3.266,3.529-5.436,4.331c-8.986,3.328-18.354-2.512-19.369-12.016c-0.303-2.825-0.221-5.585,0.561-8.311
						c1.561-5.46,6.049-9.197,11.689-9.909c2.516-0.32,4.963-0.293,7.371,0.564C293.426,324.35,295.08,325.583,296.652,327.196z
						 M287.775,329.315c-5.301-0.011-8.951,3.662-8.959,9.012c-0.008,5.449,3.633,9.178,8.953,9.172
						c5.016-0.007,8.697-3.812,8.727-9.022C296.529,333.2,292.84,329.325,287.775,329.315z"/>
				</g>
			</g>
			<g>
				<g>
					<path fill-rule="evenodd" clip-rule="evenodd" fill="#779A0A" d="M215,340.843c-7.756,0-15.353,0-23.132,0
						c0.38,2.561,1.629,4.333,3.781,5.411c3.442,1.725,6.941,1.445,10.397,0.021c0.919-0.378,1.749-0.966,2.569-1.428
						c1.421,1.421,2.9,2.9,4.522,4.522c-0.722,0.556-1.471,1.281-2.35,1.787c-5.701,3.272-11.678,3.789-17.759,1.306
						c-5.027-2.053-7.573-6.126-8.385-11.367c-0.521-3.354-0.231-6.637,1.173-9.757c2.922-6.495,9.489-8.99,16.071-8.399
						c1.381,0.124,2.78,0.392,4.099,0.816c5.314,1.708,8.655,6.247,8.999,12.166C215.076,337.488,215,339.064,215,340.843z
						 M192.017,334.848c5.445,0,10.68,0,15.912,0c-0.057-2.255-1.496-4.167-3.848-5.003c-2.423-0.861-4.893-0.881-7.325-0.03
						C194.387,330.643,192.795,332.251,192.017,334.848z"/>
				</g>
			</g>
			<g>
				<path fill-rule="evenodd" clip-rule="evenodd" fill="#779A0A" d="M308.691,330.187c0-2.304,0-4.343,0-6.474
					c7.809,0,15.564,0,23.406,0c0.162,1.763,0.238,3.341-0.955,4.938c-3.93,5.251-7.693,10.624-11.518,15.955
					c-0.291,0.407-0.561,0.834-1.008,1.502c4.721,0,9.154,0,13.672,0c0,2.415,0,4.662,0,6.997c-8.182,0-16.344,0-24.625,0
					c-0.125-1.367-0.311-2.667,0.658-4.004c4.219-5.8,8.338-11.671,12.49-17.516c0.268-0.377,0.516-0.768,0.939-1.398
					C317.252,330.187,313.043,330.187,308.691,330.187z"/>
			</g>
		</g>
	</g>
	<path fill-rule="evenodd" clip-rule="evenodd" fill="#4E585A" d="M126.131,286.805c2.236,0.152,4.247,0.399,6.258,0.405
		c7.35,0.021,10.957-3.11,11.787-10.46c0.422-3.741,0.584-7.527,0.605-11.296c0.072-12.748,0.025-25.498,0.033-38.245
		c0.001-0.854,0.088-1.708,0.139-2.657c3.791,0,7.404,0,11.146,0c0.057,0.552,0.155,1.067,0.155,1.583
		c-0.001,14.637,0.082,29.276-0.095,43.912c-0.04,3.248-0.603,6.615-1.606,9.706c-3.444,10.604-11.536,14.902-22.281,12.089
		c-1.745-0.458-3.394-1.279-5.103-1.893C125.371,289.303,125.117,288.227,126.131,286.805z"/>
	<g>
		<path fill-rule="evenodd" clip-rule="evenodd" fill="#4E585A" d="M0,207.945c2.855,0.515,5.705,0.998,8.015,3.015
			c3.048,2.662,3.989,6.117,3.987,9.985c-0.008,15.189-0.003,30.376-0.003,45.565c0,0.799,0,1.601,0,2.548
			c6.591,0,13.021,0,19.657,0c0-13.87,0-27.677,0-41.481c5.842-0.09,11.694,5.613,11.73,11.37
			c0.055,9.113,0.016,18.226,0.018,27.339c0,0.863,0,1.729,0,2.758c3.271,0,6.331,0,9.616,0c0.034-0.703,0.095-1.418,0.098-2.133
			c0.009-4.59-0.007-9.18,0.007-13.77c0.035-11.998,10.033-23.561,21.896-25.273c1.729-0.25,3.489-0.368,5.236-0.371
			c14.175-0.029,28.351-0.017,42.526-0.017c0.805,0,1.609,0,2.645,0c0.035,0.808,0.094,1.519,0.094,2.23
			c0.007,8.641,0.055,17.28-0.039,25.921c-0.018,1.705-0.266,3.557-0.972,5.077c-1.785,3.838-3.823,7.564-5.92,11.246
			c-0.481,0.844-1.511,1.541-2.444,1.933c-5.28,2.215-10.446,5.114-15.963,6.226c-5.322,1.071-11.023,0.267-16.559,0.267
			c-27.271,0.004-54.543,0-81.814,0.006c-0.603,0-1.207,0.051-1.811,0.078C0,256.291,0,232.118,0,207.945z M113.271,239.06
			c-0.974,0-1.769,0-2.564,0c-10.195,0-20.39,0.002-30.585-0.003c-7.949-0.004-14.532,6.522-14.59,14.521
			c-0.033,4.59-0.012,9.181-0.002,13.772c0.002,0.578,0.088,1.157,0.139,1.778c0.705,0.032,1.236,0.076,1.77,0.076
			c10.531,0.003,21.064,0.024,31.597-0.009c6.98-0.021,14.343-7.453,14.347-14.406c0-4.455,0.004-8.912-0.006-13.365
			C113.374,240.7,113.313,239.978,113.271,239.06z"/>
		<path fill-rule="evenodd" clip-rule="evenodd" fill="#4E585A" d="M190.813,304.682c-1.252-0.186-2.533-0.267-3.749-0.594
			c-0.776-0.209-1.456-0.78-2.179-1.189c0.563-0.706,0.979-1.756,1.708-2.063c9.646-4.073,19.283-8.174,29.045-11.952
			c2.656-1.026,5.611-2.401,8.357-3.159c0.713,3.293,0.715,5.681-1.52,6.214c-3.041,1.142-5.553,2.768-8.531,3.897
			c-6.351,3.742-13.049,6.658-20.189,8.533c-0.185,0.048-0.342,0.206-0.512,0.313C192.434,304.682,191.624,304.682,190.813,304.682z
			"/>
		<path fill-rule="evenodd" clip-rule="evenodd" fill="#4E585A" d="M91.559,205.11c2.607,1.076,4.924,2.403,5.685,5.459
			c1.026,4.117-1.085,8.311-4.849,9.414c-4.193,1.229-8.578-0.903-9.85-4.793c-1.385-4.233,0.594-8.078,4.932-9.615
			c0.298-0.104,0.561-0.309,0.841-0.465C89.396,205.11,90.479,205.11,91.559,205.11z"/>
		<path fill-rule="evenodd" clip-rule="evenodd" fill="#4E585A" d="M172.314,280.382c0.299-6.688,4.844-11.114,11.26-11.159
			c7.628-0.054,15.258,0.04,22.884-0.038c9.064-0.09,16.245-9.06,14.413-17.89c-1.32-6.364-7.732-11.735-14.215-11.814
			c-4.859-0.059-9.721-0.007-14.58-0.019c-7.813-0.017-11.923-3.96-12.336-11.981c3.439,0,6.873-0.036,10.308,0.009
			c6.81,0.088,13.654-0.17,20.423,0.428c11.307,0.999,21.32,11.946,22.037,23.257c0.385,6.096-0.473,11.832-3.924,17.01
			c-0.139,0.207-0.189,0.474-0.35,0.886c19.287,0,38.414,0,57.713,0c0.055-0.459,0.168-0.968,0.17-1.476
			c0.008-4.59,0.055-9.181-0.023-13.77c-0.133-7.763-6.836-14.288-14.598-14.374c-2.484-0.028-5.031,0.056-7.443-0.437
			c-5.201-1.063-8.744-5.976-8.193-11.128c3.465,0,6.963-0.101,10.449,0.027c3.965,0.144,8.018,0.032,11.863,0.838
			c11.084,2.326,19.594,12.747,19.971,24.078c0.156,4.652,0.016,9.313,0.01,13.973c-0.002,0.72,0,1.441,0,2.407
			c2.311,0,4.383,0,6.455,0c3.982,0,7.965,0.017,11.947-0.004c8.199-0.042,14.672-6.33,14.867-14.563
			c0.113-4.791,0.029-9.585,0.033-14.379c0.006-8.057,4.043-12.215,12.232-12.599c0.029,0.061,0.084,0.121,0.084,0.182
			c-0.086,10.049,0.285,20.126-0.385,30.133c-0.76,11.29-10.727,20.816-21.965,22.033c-2.008,0.218-4.035,0.354-6.053,0.354
			c-46.85,0.021-93.697,0.016-140.547,0.016C174.023,280.382,173.223,280.382,172.314,280.382z"/>
		<path fill-rule="evenodd" clip-rule="evenodd" fill="#4E585A" d="M355.418,208.62c7.742-0.021,11.982,4.055,11.994,11.616
			c0.037,19.442,0.016,38.886,0.012,58.328c0,0.528-0.063,1.06-0.094,1.576c-7.049,0.431-12.012-3.825-12.043-10.62
			c-0.09-19.849-0.041-39.696-0.037-59.544C355.25,209.52,355.361,209.063,355.418,208.62z"/>
		<path fill-rule="evenodd" clip-rule="evenodd" fill="#4E585A" d="M335.918,297.082c0.025,4.225-3.141,7.525-7.289,7.597
			c-4.27,0.075-7.67-3.195-7.705-7.416c-0.039-4.595,3.158-8.023,7.525-8.075C332.641,289.139,335.891,292.575,335.918,297.082z"/>
		<path fill-rule="evenodd" clip-rule="evenodd" fill="#4E585A" d="M269.311,298.784c0.008-4.556,3.27-7.98,7.6-7.978
			c4.217,0.003,7.348,3.373,7.375,7.942c0.027,4.399-3.113,7.584-7.443,7.552C272.492,306.268,269.303,303.084,269.311,298.784z"/>
	</g>
	<g>
		<path fill="#4E585A" d="M189.602,109.146c-0.854-2.191-3.32-3.277-5.512-2.423l-62.588,24.354
			c-2.191,0.854-3.277,3.32-2.424,5.511l24.355,62.59c0.853,2.189,3.32,3.276,5.512,2.423l62.586-24.354
			c2.193-0.853,3.276-3.32,2.425-5.512L189.602,109.146z M182.533,168.756l-8.569-6.147c-2.259-1.558-4.261-3.127-6.399-4.819
			l-0.15,0.058c-0.355,2.663-0.877,5.127-1.383,7.847l-2.085,10.295l-7.329,2.853l5.733-23.72l-19.36-13.087l7.404-2.881
			l8.272,5.828c2.153,1.512,4.022,2.959,6.025,4.528l0.227-0.086c0.356-2.662,0.83-5.021,1.274-7.457l2.109-9.782l7.18-2.793
			l-5.588,22.532l20.196,13.893L182.533,168.756z"/>
		<path fill="#779A0A" d="M290.686,141.536L266.33,78.947c-0.854-2.191-3.32-3.277-5.512-2.424l-62.588,24.354
			c-2.191,0.852-3.278,3.321-2.425,5.512l24.356,62.588c0.852,2.191,3.318,3.276,5.512,2.425l62.588-24.355
			C290.453,146.194,291.537,143.727,290.686,141.536z M231.799,132.28l-2.611-6.712l25.504-9.923l2.611,6.711L231.799,132.28z"/>
		<path fill="#779A0A" d="M182.014,101.268c2.192-0.852,3.277-3.32,2.425-5.512l-24.354-62.588c-0.854-2.191-3.32-3.276-5.514-2.424
			L91.982,55.099c-2.191,0.854-3.275,3.321-2.424,5.512l24.355,62.589c0.852,2.191,3.32,3.276,5.512,2.423L182.014,101.268z
			 M111.592,91.689l-2.468-6.408l23.731-9.136l-8.711-22.631l6.008-2.313l8.711,22.63l23.532-9.059l2.468,6.409l-23.531,9.058
			l8.711,22.63l-6.008,2.313l-8.713-22.63L111.592,91.689z"/>
		<path fill="#4E585A" d="M190.212,92.746c0.852,2.191,3.319,3.276,5.511,2.424l62.592-24.355c2.189-0.853,3.273-3.321,2.422-5.512
			L236.381,2.715c-0.852-2.191-3.32-3.276-5.512-2.424L168.28,24.646c-2.19,0.852-3.276,3.32-2.423,5.511L190.212,92.746z
			 M220.223,64.656c-2.643,1.08-5.662-0.185-6.742-2.827c-1.081-2.642,0.185-5.66,2.828-6.74c2.641-1.082,5.658,0.184,6.738,2.827
			C224.127,60.556,222.865,63.574,220.223,64.656z M206.372,30.806c2.639-1.08,5.653,0.184,6.734,2.823
			c1.079,2.639-0.186,5.654-2.824,6.734c-2.64,1.08-5.654-0.185-6.734-2.824C202.469,34.901,203.731,31.886,206.372,30.806z
			 M235.914,34.538l3.355,8.201l-48.306,18.912l-3.355-8.202L235.914,34.538z"/>
	</g>
</g>
</svg>
